<svg xmlns="http://www.w3.org/2000/svg" viewBox="0 0 440 120" fill="none">
  <!-- Blue G -->
  <g>
    <path d="M 48 20 A 38 38 0 1 0 86 58 L 86 42 L 58 42 L 58 56 L 70 56 L 70 58 A 22 22 0 1 1 48 36 L 48 20Z" fill="#2F75D8"/>
    <rect x="58" y="42" width="28" height="14" fill="#2F75D8"/>
  </g>

  <!-- Green D -->
  <g>
    <rect x="96" y="20" width="16" height="76" rx="4" fill="#34C35A"/>
    <path d="M 112 20 Q 148 20 148 58 Q 148 96 112 96 L 112 80 Q 132 80 132 58 Q 132 36 112 36 Z" fill="#34C35A"/>
  </g>

  <!-- wordmark: gadidost -->
  <!-- g -->
  <text x="168" y="74" font-family="'Segoe UI', Arial, sans-serif" font-size="46" font-weight="700" fill="#1E2D4A" letter-spacing="-1">gadid</text>
  <!-- o with green dot -->
  <text x="340" y="74" font-family="'Segoe UI', Arial, sans-serif" font-size="46" font-weight="700" fill="#1E2D4A">o</text>
  <circle cx="363" cy="52" r="6" fill="#34C35A"/>
  <!-- st -->
  <text x="376" y="74" font-family="'Segoe UI', Arial, sans-serif" font-size="46" font-weight="700" fill="#1E2D4A">st</text>
</svg>
